# xmcd
# 
# Track frame offsets:
#     150
#     13215
#     27567
#     44837
#     61542
#     80227
#     92660
#     112890
#     125102
#     138662
#     154370
#     169102
#     188200
#     205140
#     218842
#     232290
#     252305
# 
# Disc length: 3583
# 
# Revision: 2
# Processed by: cddbd v1.5.2PL0 Copyright (c) Steve Scherf et al.
# Submitted via: BonkEnc v1.0
# 
DISCID=030dfd11
DTITLE=Hnos. Barron - 20 Toneladas de Exitos
DYEAR=0
DGENRE=Cumbia
TTITLE0=16 Tons
TTITLE1=Tu Ausencia
TTITLE2=El Hijo de Susana
TTITLE3=Pancho Lopez
TTITLE4=El Viboron
TTITLE5=Quinto Patio
TTITLE6=La Ventana Sonica
TTITLE7=Rueditas de Amor
TTITLE8=Respeta Mi Dolor
TTITLE9=La Mujer de Juan
TTITLE10=El Gavilan Pollero
TTITLE11=El Corrido del Mojado
TTITLE12=El Trenecito
TTITLE13=Las Montoneras
TTITLE14=En La Enorme Distancia
TTITLE15=La Canalla
TTITLE16=El Huerfanito
EXTD=
EXTT0=
EXTT1=
EXTT2=
EXTT3=
EXTT4=
EXTT5=
EXTT6=
EXTT7=
EXTT8=
EXTT9=
EXTT10=
EXTT11=
EXTT12=
EXTT13=
EXTT14=
EXTT15=
EXTT16=
PLAYORDER=
